<?xml version="1.0" standalone="no"?>
<!DOCTYPE svg PUBLIC "-//W3C//DTD SVG 20010904//EN"
 "http://www.w3.org/TR/2001/REC-SVG-20010904/DTD/svg10.dtd">
<svg version="1.0" xmlns="http://www.w3.org/2000/svg"
 width="1024.000000pt" height="1024.000000pt" viewBox="0 0 1024.000000 1024.000000"
 preserveAspectRatio="xMidYMid meet" fill="white" stroke="white">

<g transform="translate(0.000000,1024.000000) scale(0.100000,-0.100000)"
fill="#4f46e5" stroke="none">
<path d="M4190 6984 c-539 -66 -1010 -356 -1310 -807 -123 -185 -193 -342
-255 -574 -74 -278 -73 -669 5 -965 65 -249 176 -478 332 -679 284 -369 707
-616 1178 -689 168 -26 205 -26 225 3 68 95 464 679 479 705 6 9 -3 8 -31 -4
-305 -133 -646 -123 -943 26 -300 150 -538 440 -621 755 -10 39 -19 73 -19 78
0 4 310 7 689 7 596 0 690 2 694 15 4 8 92 143 197 301 105 157 193 291 196
297 3 9 -214 11 -881 9 -582 -3 -885 0 -885 6 0 33 78 225 122 299 178 303
431 492 767 575 109 27 337 29 446 5 111 -25 238 -74 327 -128 45 -27 83 -48
84 -46 2 2 -18 33 -44 69 -68 96 -138 196 -292 423 -75 110 -157 229 -181 265
l-45 65 -60 1 c-32 1 -111 -4 -174 -12z"/>
<path d="M5673 6990 l-971 -5 174 -250 c96 -137 180 -258 186 -269 7 -10 25
-36 41 -57 l27 -39 658 0 657 1 206 309 c113 170 204 312 201 315 -3 3 -51 4
-106 3 -56 -2 -538 -5 -1073 -8z"/>
<path d="M7211 6991 l-74 -6 -75 -110 c-194 -285 -628 -930 -1230 -1830 -228
-341 -475 -709 -549 -817 -73 -109 -195 -289 -270 -400 -172 -255 -271 -402
-341 -500 l-54 -78 379 0 378 1 122 182 c67 100 194 290 284 422 89 132 257
382 374 555 513 763 618 918 758 1125 82 121 196 290 253 375 58 85 163 241
235 345 l129 190 -2 275 -3 275 -120 1 c-66 0 -153 -2 -194 -5z"/>
<path d="M5945 3697 c-66 -100 -159 -239 -207 -310 -49 -70 -88 -130 -88 -132
0 -3 423 -5 940 -5 l940 0 0 315 0 315 -732 0 -733 -1 -120 -182z"/>
</g>
</svg>
